<?xml version="1.0" encoding="utf-8"?>
<!-- Generator: Adobe Illustrator 16.0.0, SVG Export Plug-In . SVG Version: 6.00 Build 0)  -->
<!DOCTYPE svg PUBLIC "-//W3C//DTD SVG 1.1//EN" "http://www.w3.org/Graphics/SVG/1.1/DTD/svg11.dtd">
<svg version="1.1" xmlns="http://www.w3.org/2000/svg" xmlns:xlink="http://www.w3.org/1999/xlink" x="0px" y="0px" width="1024px"
	 height="1024px" viewBox="0 0 1024 1024" enable-background="new 0 0 1024 1024" xml:space="preserve">
<g id="v1.1">
	<rect fill="#EFEFF4" width="1024" height="1024"/>
	<rect opacity="0.5" fill="#AAAAAA" width="1024" height="100"/>
	<rect y="924" opacity="0.5" fill="#AAAAAA" width="1024" height="100"/>
	<rect x="320" y="704" opacity="0.8" fill="#FFFF00" width="128" height="128"/>
	<rect x="192" y="448" opacity="0.8" fill="#FFFF00" width="128" height="128"/>
	<rect x="448" y="192" opacity="0.8" fill="#FFFF00" width="128" height="128"/>
	<rect x="704" y="448" opacity="0.8" fill="#FFFF00" width="128" height="128"/>
	<rect x="576" y="704" opacity="0.8" fill="#FFFF00" width="128" height="128"/>
	<circle fill="#808080" cx="512" cy="512" r="51.2"/>
	
		<rect x="76.9" y="176.9" opacity="0.8" fill="none" stroke="#FFFF00" stroke-width="3" stroke-miterlimit="10" width="870.2" height="670.2"/>
</g>
<g id="v1.2">
	<rect fill="#0F0F0F" width="1024" height="1024"/>
	<rect fill="#343F3F" width="1024" height="102.4"/>
	<rect y="924" fill="#343F3F" width="1024" height="100"/>
	<circle fill="#AEFFF3" stroke="#FFFFFF" stroke-width="3" stroke-miterlimit="10" cx="512" cy="512" r="45"/>
	<path fill="none" stroke="#939BA5" stroke-width="6" stroke-miterlimit="10" d="M945.1,836.9c0,5.522-4.478,10-10,10h-850
		c-5.523,0-10-4.478-10-10v-650c0-5.523,4.477-10,10-10h850c5.522,0,10,4.477,10,10V836.9z"/>
	<path fill="#939BA5" d="M574.1,310.3c0,5.523-4.478,10-10,10h-108c-5.523,0-10-4.477-10-10v-108c0-5.523,4.477-10,10-10h108
		c5.522,0,10,4.477,10,10V310.3z"/>
	<path fill="#939BA5" d="M318.199,565.9c0,5.523-4.478,10-10,10h-108c-5.523,0-10-4.477-10-10v-108c0-5.523,4.477-10,10-10h108
		c5.522,0,10,4.477,10,10V565.9z"/>
	<path fill="#939BA5" d="M446.199,821.701c0,5.523-4.478,10-10,10h-108c-5.523,0-10-4.477-10-10v-108c0-5.523,4.477-10,10-10h108
		c5.522,0,10,4.477,10,10V821.701z"/>
	<path fill="#939BA5" d="M702.199,821.701c0,5.523-4.478,10-10,10h-108c-5.523,0-10-4.477-10-10v-108c0-5.523,4.477-10,10-10h108
		c5.522,0,10,4.477,10,10V821.701z"/>
	<path fill="#939BA5" d="M830.199,566c0,5.523-4.478,10-10,10h-108c-5.523,0-10-4.477-10-10V458c0-5.523,4.477-10,10-10h108
		c5.522,0,10,4.477,10,10V566z"/>
</g>
</svg>
