<?xml version="1.0" encoding="utf-8"?>
<!-- Generator: Adobe Illustrator 16.0.0, SVG Export Plug-In . SVG Version: 6.00 Build 0)  -->
<!DOCTYPE svg PUBLIC "-//W3C//DTD SVG 1.1//EN" "http://www.w3.org/Graphics/SVG/1.1/DTD/svg11.dtd">
<svg version="1.1" xmlns="http://www.w3.org/2000/svg" xmlns:xlink="http://www.w3.org/1999/xlink" x="0px" y="0px" width="1024px"
	 height="1024px" viewBox="0 0 1024 1024" enable-background="new 0 0 1024 1024" xml:space="preserve">
<g id="V_1">
	<rect fill="#EFEFF4" width="1024" height="1024"/>
	<rect opacity="0.5" fill="#AAAAAA" width="1024" height="100"/>
	<rect y="924" opacity="0.5" fill="#AAAAAA" width="1024" height="100"/>
	<rect x="418.667" y="871.5" opacity="0.8" fill="#FFFF00" width="186.667" height="35"/>
	<rect x="418.667" y="117.5" opacity="0.8" fill="#FFFF00" width="186.667" height="35"/>
	<rect x="20.667" y="418.667" opacity="0.8" fill="#FFFF00" width="35" height="186.667"/>
	<rect x="971.5" y="418.667" opacity="0.8" fill="#FFFF00" width="35" height="186.667"/>
	<circle fill="#DDDDDD" cx="458.815" cy="531.864" r="46"/>
	<path fill="#A3A3A3" d="M556.279,525.013c-6.854,24.458-32.242,38.73-56.704,31.875c-24.463-6.856-38.737-32.245-31.882-56.703
		c6.856-24.463,32.245-38.735,56.708-31.879C548.863,475.162,563.136,500.55,556.279,525.013z"/>
	<path fill="#808080" d="M609.479,505.651c-6.855,24.463-32.243,38.731-56.705,31.875c-24.462-6.855-38.737-32.239-31.882-56.702
		c6.856-24.463,32.246-38.735,56.708-31.879C602.062,455.8,616.335,481.188,609.479,505.651z"/>
</g>
<g id="V_1.1">
	<rect fill="#0F0F0F" width="1024" height="1024"/>
	<rect fill="#343F3F" width="1024" height="102.4"/>
	<rect y="924" fill="#343F3F" width="1024" height="100"/>
	<rect x="418.667" y="875.735" fill="#939BA5" width="186.667" height="35"/>
	<rect x="418.667" y="121.735" fill="#939BA5" width="186.667" height="35"/>
	<rect x="20.667" y="422.902" fill="#939BA5" width="35" height="186.667"/>
	<rect x="971.5" y="422.902" fill="#939BA5" width="35" height="186.667"/>
	<circle opacity="0.9" fill="#65938C" stroke="#FFFFFF" stroke-miterlimit="10" cx="458.815" cy="536.099" r="46"/>
	<path fill="#8BC9BF" stroke="#FFFFFF" stroke-width="2" stroke-miterlimit="10" d="M556.279,529.248
		c-6.854,24.458-32.242,38.73-56.704,31.875c-24.463-6.856-38.737-32.245-31.882-56.702c6.856-24.463,32.245-38.735,56.708-31.879
		C548.863,479.397,563.136,504.785,556.279,529.248z"/>
	<path fill="#AEFFF3" stroke="#FFFFFF" stroke-width="3" stroke-miterlimit="10" d="M610.433,510.153
		c-7.004,24.99-32.938,39.565-57.927,32.562c-24.988-7.004-39.571-32.934-32.568-57.923c7.005-24.99,32.94-39.569,57.93-32.565
		C602.855,459.229,617.437,485.164,610.433,510.153z"/>
</g>
</svg>
