<?xml version="1.0" encoding="utf-8"?>
<!-- Generator: Adobe Illustrator 16.0.0, SVG Export Plug-In . SVG Version: 6.00 Build 0)  -->
<!DOCTYPE svg PUBLIC "-//W3C//DTD SVG 1.1//EN" "http://www.w3.org/Graphics/SVG/1.1/DTD/svg11.dtd">
<svg version="1.1" id="Layer_1" xmlns="http://www.w3.org/2000/svg" xmlns:xlink="http://www.w3.org/1999/xlink" x="0px" y="0px"
	 width="280.8px" height="223.2px" viewBox="0 0 280.8 223.2" enable-background="new 0 0 280.8 223.2" xml:space="preserve">
<g>
	<path fill="#FFFFFF" d="M8.871,204.647c0-45.306,0-90.614,0-135.922c1.228,0.689,2.541,1.257,3.668,2.082
		c16.844,12.338,33.518,24.913,50.524,37.019c20.573,14.646,41.379,28.938,63.834,40.694c9.249,4.843,17.993,5.292,26.944,0.012
		c13.193-7.774,26.877-14.857,39.396-23.605c26.558-18.557,52.498-38,78.691-57.079c0,45.31,0,90.616,0,135.922
		c-4.497,13.272-13.966,17.744-27.63,17.677c-69.794-0.347-139.574-0.297-209.369-0.037
		C22.117,221.457,13.303,216.857,8.871,204.647z"/>
	<path fill-rule="evenodd" clip-rule="evenodd" fill="#FFFFFF" d="M8.871,34.526c0-5.554,0-11.108,0-16.661
		C14.182,5.376,23.909,1.836,36.978,1.906c69.841,0.378,139.668,0.174,209.511,0.198c2.617,0,5.295-0.016,7.844,0.486
		c9.477,1.866,14.569,8.417,17.597,17.027c0,5.262,0,10.523,0,15.786c-1.207,0.757-2.468,1.441-3.611,2.285
		c-28.655,21.14-57.094,42.579-86.05,63.296c-10.029,7.174-21.292,12.643-32.075,18.741c-6.442,3.654-13.038,3.653-19.619,0.049
		c-4.091-2.241-8.558-3.909-12.361-6.548C92.447,95.34,66.719,77.401,41.186,59.19C30.159,51.325,19.628,42.768,8.871,34.526z"/>
</g>
</svg>
