
<svg width="352px" height="379px" viewBox="0 0 352 379" version="1.1" xmlns="http://www.w3.org/2000/svg" xmlns:xlink="http://www.w3.org/1999/xlink">
    <defs>
        <path d="M46.3612732,5.15915272 C49.0543579,5.19644064 50.2366606,2.84689449 50.2681425,1.2066325 C50.2681425,0.336591752 50.5231114,0.0507067823 51.5198579,0.0507067823 C52.5166045,0.0507067823 53.9863561,0.0507067823 57.2858341,0.0507067823 C60.585312,0.0507067823 64.3783891,1.54222384 64.3783891,7.28456453 C64.3783891,13.0269052 64.3783891,125.114424 64.3783891,129.738121 C64.3783891,134.361818 61.8749582,136.971973 56.299135,136.971973 C50.7233118,136.971973 13.1704051,136.971973 7.48151159,136.971973 C1.79261811,136.971973 0.00987190594,133.578772 0.00987190594,129.849979 C0.00987190594,126.121186 0.00987190594,11.5726648 0.00987190594,6.87439168 C0.00987190594,2.17611859 3.42364123,0.0134188557 6.60982593,0.0134188557 C9.79601064,0.0134188557 12.1097876,0.0134188557 13.0201261,0.0134188557 C13.9304646,0.0134188557 14.1201184,0.535449827 14.1201184,1.13205665 C14.1201184,1.72866348 14.4473408,5.09682817 18.2166416,5.12186479 C21.4028263,5.12186479 42.75785,5.15915272 46.3612732,5.15915272 Z" id="path-1"></path>
        <filter x="-4.7%" y="-2.2%" width="109.3%" height="104.4%" filterUnits="objectBoundingBox" id="filter-3">
            <feOffset dx="0" dy="0" in="SourceAlpha" result="shadowOffsetOuter1"></feOffset>
            <feGaussianBlur stdDeviation="1" in="shadowOffsetOuter1" result="shadowBlurOuter1"></feGaussianBlur>
            <feColorMatrix values="0 0 0 0 0   0 0 0 0 0   0 0 0 0 0  0 0 0 0.04 0" type="matrix" in="shadowBlurOuter1"></feColorMatrix>
        </filter>
    </defs>
    <g id="Page-1" stroke="none" stroke-width="1" fill="none" fill-rule="evenodd">
        <g id="Group-3">
            <g id="table-and-coffee" transform="translate(0.000000, 61.113402)">
                <g id="table" transform="translate(0.000000, 26.368133)">
                    <g id="Group-2" transform="translate(0.373002, 58.161184)" fill="#EC8F40">
                        <polyline id="Fill-4" points="0 224.623481 0 232.95985 165.136192 210.451652 165.136192 193.778913 163.968643 187.943454 0 224.623481"></polyline>
                        <polyline id="Fill-6" points="350.631641 224.623481 350.631641 232.95985 185.495449 210.451652 185.495449 193.778913 186.65838 187.943454 350.631641 224.623481"></polyline>
                        <polyline id="Fill-5" points="175.541112 0 164.005123 0 164.005123 196.946734 186.626519 196.946734 186.626519 0 175.541112 0"></polyline>
                        <ellipse id="Oval" cx="175.315821" cy="197.444702" rx="33.9320943" ry="23.0061671"></ellipse>
                    </g>
                    <g id="Group-5">
                        <path d="M350.779812,39.041595 C350.779812,59.9820972 272.254159,76.9577802 175.38934,76.9577802 C78.5233906,76.9577802 -5.68434189e-14,59.9820972 -5.68434189e-14,39.041595 C-5.68434189e-14,18.0999675 78.5233906,1.12540991 175.38934,1.12540991 C272.254159,1.12540991 350.779812,18.0999675 350.779812,39.041595" id="Fill-110" fill="#E4C1C1"></path>
                        <path d="M350.779812,38.4575073 C350.779812,59.3991348 272.254159,76.3748178 175.38934,76.3748178 C78.5233906,76.3748178 -5.68434189e-14,59.3991348 -5.68434189e-14,38.4575073 C-5.68434189e-14,17.5181306 78.5233906,0.542447575 175.38934,0.542447575 C272.254159,0.542447575 350.779812,17.5181306 350.779812,38.4575073" id="Fill-111" fill="#8F511C"></path>
                        <path d="M175.762342,76.9454007 C78.8963923,76.9454007 0.373001758,59.9697176 0.373001758,39.0292155 L0.373001758,72.569807 C0.373001758,93.5103091 78.8963923,110.487117 175.762342,110.487117 C272.627161,110.487117 351.152813,93.5103091 351.152813,72.569807 L351.152813,39.0292155 C351.152813,59.9697176 272.627161,76.9454007 175.762342,76.9454007" id="Fill-112" fill="#EC8F40"></path>
                    </g>
                </g>
                <g id="coffee-cup" transform="translate(96.394091, 31.731959) scale(-1, 1) translate(-96.394091, -31.731959) translate(51.342545, 0.000000)">
                    <path d="M86.2041277,53.2598066 C86.2041277,58.8598669 67.669051,63.3957866 44.8026599,63.3957866 C21.9378713,63.3957866 3.40279451,58.8598669 3.40279451,53.2598066 C3.40279451,47.6629758 21.9378713,43.1254413 44.8026599,43.1254413 C67.669051,43.1254413 86.2041277,47.6629758 86.2041277,53.2598066" id="Fill-114" fill="#FAF4EC"></path>
                    <path d="M89.6069222,51.5714185 C89.6069222,56.858112 69.5453403,61.143526 44.8026699,61.143526 C20.0584169,61.143526 -2.84217094e-14,56.858112 -2.84217094e-14,51.5714185 C-2.84217094e-14,46.2862822 20.0584169,41.999311 44.8026699,41.999311 C69.5453403,41.999311 89.6069222,46.2862822 89.6069222,51.5714185" id="Fill-115" fill="#FFFFFE"></path>
                    <g id="Group-8" transform="translate(21.551032, 0.332490)" fill="#4A90E2">
                        <polygon id="Fill-116" points="-1.77635684e-15 53.3181625 49.2734368 53.3181625 49.2734368 2.84217094e-14 -1.77635684e-15 2.84217094e-14"></polygon>
                        <path d="M52.6258916,31.6217388 C46.9391468,31.6217388 42.3311148,27.0255373 42.3311148,21.3514304 C42.3311148,15.6789134 46.9391468,11.0795323 52.6258916,11.0795323 C58.3126364,11.0795323 62.9206683,15.6789134 62.9206683,21.3514304 C62.9206683,27.0255373 58.3126364,31.6217388 52.6258916,31.6217388 Z M52.6258916,7.2702972 C44.8327089,7.2702972 38.5133955,13.575567 38.5133955,21.3514304 C38.5133955,29.1288837 44.8327089,35.4309739 52.6258916,35.4309739 C60.4206676,35.4309739 66.7383877,29.1288837 66.7383877,21.3514304 C66.7383877,13.575567 60.4206676,7.2702972 52.6258916,7.2702972 L52.6258916,7.2702972 Z" id="Fill-117"></path>
                    </g>
                </g>
            </g>
            <g id="iPhone" transform="translate(175.511079, 0.096272)">
                <path d="M13.3540291,1.9910355e-14 C22.4332556,1.9910355e-14 52.0935442,2.83158916e-14 59.7344857,2.83158916e-14 C67.3754272,2.83158916e-14 73.3147545,2.99380644 73.3147545,13.1075372 C73.3147545,29.1484966 73.3147545,124.969814 73.3147545,130.369927 C73.3147545,135.770039 73.0499438,145.148403 60.4146868,145.148403 C47.7794298,145.148403 17.0106017,145.148403 11.5002902,145.148403 C5.98997877,145.148403 0,141.886996 0,132.634969 C2.86152038e-16,123.382943 2.9286366e-16,22.5761531 0,13.1075372 C0,2.31333015 6.86999405,1.9910355e-14 13.3540291,1.9910355e-14 Z" id="body" fill="#FFFFFF"></path>
                <g id="drop-your-design-here" transform="translate(5.183872, 5.183872)">
                    <mask id="mask-2" fill="white">
                        <use xlink:href="#path-1"></use>
                    </mask>
                    <g id="screen">
                        <use fill="black" fill-opacity="1" filter="url(#filter-3)" xlink:href="#path-1"></use>
                        <use fill="#131214" fill-rule="evenodd" xlink:href="#path-1"></use>
                    </g>
                </g>
                <path d="M26.4926891,138.483425 L47.5626185,138.483425 C47.8792607,138.483425 48.13595,138.814982 48.13595,139.223978 C48.13595,139.632974 47.8792607,139.964531 47.5626185,139.964531 L26.4926891,139.964531 C26.1760469,139.964531 25.9193577,139.632974 25.9193577,139.223978 C25.9193577,138.814982 26.1760469,138.483425 26.4926891,138.483425 Z" id="bottom" fill="#F0F3F5"></path>
                <g id="Top" transform="translate(31.843782, 6.664978)" fill="#131214">
                    <path d="M0.601179323,0.31737989 L7.8153312,0.31737989 C8.14735337,0.31737989 8.41651052,0.518682297 8.41651052,0.7670014 C8.41651052,1.0153205 8.14735337,1.21662291 7.8153312,1.21662291 L0.601179323,1.21662291 C0.269157151,1.21662291 4.0660989e-17,1.0153205 0,0.7670014 C-4.0660989e-17,0.518682297 0.269157151,0.31737989 0.601179323,0.31737989 Z" id="receiver"></path>
                    <ellipse id="camera" cx="11.5992246" cy="0.740553076" rx="1" ry="1"></ellipse>
                </g>
            </g>
        </g>
    </g>
</svg>