
<svg width="319px" height="2134px" viewBox="0 0 319 2134" version="1.1" xmlns="http://www.w3.org/2000/svg" xmlns:xlink="http://www.w3.org/1999/xlink">
    <g id="Page-1" stroke="none" stroke-width="1" fill="none" fill-rule="evenodd">
        <g id="Group" transform="translate(162.500000, 1068.000000) rotate(-270.000000) translate(-162.500000, -1068.000000) translate(-912.000000, 903.000000)" fill="#D35800">
            <g id="Left-Step" transform="translate(41.500000, 36.933651) rotate(127.000000) translate(-41.500000, -36.933651) translate(26.000000, -3.066349)">
                <path d="M15.8522132,56.1976213 C11.9707558,56.1976213 8.18947524,56.5908947 4.48849525,57.2032553 C4.23010245,63.3717632 4.20148047,72.3659555 7.23779467,75.8574177 C11.5135993,80.7741086 20.9556698,80.7741086 24.7512613,75.1753826 C28.5166407,69.6122679 26.0209638,61.6229355 24.9627459,56.8672698 C21.9733399,56.4778673 18.9497466,56.1976213 15.8522132,56.1976213" id="Fill-95"></path>
                <path d="M18.1875262,0.309430608 C8.47311591,0.644676713 -1.36291207,22.8441343 1.26608329,34.2278589 C2.21375358,38.3070718 4.70059839,46.7252171 4.70059839,51.6336825 C4.70059839,52.2294187 4.65005598,53.1611717 4.59714439,54.2832828 C8.24014696,53.7145204 11.9486967,53.3353455 15.7543827,53.3353455 C18.6629408,53.3353455 21.5170078,53.5642377 24.3371167,53.9002545 C24.057554,51.2429474 23.9754225,47.1290538 24.9373079,42.9273026 C26.2371957,37.2404498 28.9625375,31.3247047 30.0815782,28.3113432 C32.3646739,22.1790368 27.9050954,-0.0258154966 18.1875262,0.309430608" id="Fill-96"></path>
            </g>
            <g id="Left-Step" transform="translate(203.680631, 168.004535) rotate(129.000000) translate(-203.680631, -168.004535) translate(188.180631, 128.004535)">
                <path d="M15.8522132,56.1976213 C11.9707558,56.1976213 8.18947524,56.5908947 4.48849525,57.2032553 C4.23010245,63.3717632 4.20148047,72.3659555 7.23779467,75.8574177 C11.5135993,80.7741086 20.9556698,80.7741086 24.7512613,75.1753826 C28.5166407,69.6122679 26.0209638,61.6229355 24.9627459,56.8672698 C21.9733399,56.4778673 18.9497466,56.1976213 15.8522132,56.1976213" id="Fill-95"></path>
                <path d="M18.1875262,0.309430608 C8.47311591,0.644676713 -1.36291207,22.8441343 1.26608329,34.2278589 C2.21375358,38.3070718 4.70059839,46.7252171 4.70059839,51.6336825 C4.70059839,52.2294187 4.65005598,53.1611717 4.59714439,54.2832828 C8.24014696,53.7145204 11.9486967,53.3353455 15.7543827,53.3353455 C18.6629408,53.3353455 21.5170078,53.5642377 24.3371167,53.9002545 C24.057554,51.2429474 23.9754225,47.1290538 24.9373079,42.9273026 C26.2371957,37.2404498 28.9625375,31.3247047 30.0815782,28.3113432 C32.3646739,22.1790368 27.9050954,-0.0258154966 18.1875262,0.309430608" id="Fill-96"></path>
            </g>
            <g id="Right-Step" transform="translate(92.033794, 137.362389) rotate(134.000000) translate(-92.033794, -137.362389) translate(77.033794, 97.362389)">
                <path d="M15.074638,56.9326966 C11.9056942,56.9326966 8.80913335,57.2186983 5.75791133,57.6283765 C4.62523663,62.4440271 2.65021466,69.7911796 6.17311933,74.9840433 C9.96885225,80.5773095 19.4144366,80.5773095 23.6937834,75.6650366 C26.5835357,72.3481896 26.6956895,64.0425449 26.4785405,57.9360216 C22.7647356,57.3269152 18.9682073,56.9326966 15.074638,56.9326966" id="Fill-97"></path>
                <path d="M12.5947808,0.178903298 C2.87564319,-0.154987078 -1.58314052,22.0606751 0.703901208,28.2002483 C1.82530979,31.2106595 4.54827937,37.134322 5.84421704,42.8235672 C6.92377023,47.5311902 6.69948851,52.1524489 6.34490228,54.7102189 C9.1958072,54.3632196 12.0830394,54.1272601 15.0302907,54.1272601 C18.8533463,54.1272601 22.5729481,54.5081882 26.2309513,55.0834358 C26.1567172,53.541217 26.0880112,52.2850797 26.0880112,51.5309347 C26.0880112,46.6197389 28.5756429,38.198453 29.5185738,34.1169708 C32.1444072,22.7299981 22.3083904,0.513564784 12.5947808,0.178903298" id="Fill-98"></path>
            </g>
            <g id="Right-Step" transform="translate(278.231343, 263.209351) rotate(120.000000) translate(-278.231343, -263.209351) translate(262.731343, 223.209351)">
                <path d="M15.478996,56.8186297 C12.3100522,56.8186297 9.21349133,57.1046314 6.16226931,57.5143095 C5.02959461,62.3299602 3.05457264,69.6771126 6.57747731,74.8699764 C10.3732102,80.4632425 19.8187946,80.4632425 24.0981414,75.5509697 C26.9878936,72.2341226 27.1000475,63.9284779 26.8828985,57.8219546 C23.1690936,57.2128482 19.3725653,56.8186297 15.478996,56.8186297" id="Fill-97"></path>
                <path d="M13.2975999,0.64549185 C3.57846231,0.311601474 -0.880321403,22.5272637 1.40672033,28.6668369 C2.52812891,31.677248 5.25109849,37.6009105 6.54703616,43.2901558 C7.62658935,47.9977788 7.40230764,52.6190375 7.0477214,55.1768074 C9.89862632,54.8298082 12.7858586,54.5938487 15.7331099,54.5938487 C19.5561655,54.5938487 23.2757672,54.9747767 26.9337704,55.5500244 C26.8595363,54.0078055 26.7908303,52.7516683 26.7908303,51.9975233 C26.7908303,47.0863274 29.278462,38.6650415 30.2213929,34.5835594 C32.8472264,23.1965867 23.0112095,0.980153336 13.2975999,0.64549185" id="Fill-98"></path>
            </g>
            <g id="Right-Step" transform="translate(476.119322, 302.381619) rotate(98.000000) translate(-476.119322, -302.381619) translate(460.619322, 262.381619)">
                <path d="M15.478996,56.8186297 C12.3100522,56.8186297 9.21349133,57.1046314 6.16226931,57.5143095 C5.02959461,62.3299602 3.05457264,69.6771126 6.57747731,74.8699764 C10.3732102,80.4632425 19.8187946,80.4632425 24.0981414,75.5509697 C26.9878936,72.2341226 27.1000475,63.9284779 26.8828985,57.8219546 C23.1690936,57.2128482 19.3725653,56.8186297 15.478996,56.8186297" id="Fill-97"></path>
                <path d="M13.2975999,0.64549185 C3.57846231,0.311601474 -0.880321403,22.5272637 1.40672033,28.6668369 C2.52812891,31.677248 5.25109849,37.6009105 6.54703616,43.2901558 C7.62658935,47.9977788 7.40230764,52.6190375 7.0477214,55.1768074 C9.89862632,54.8298082 12.7858586,54.5938487 15.7331099,54.5938487 C19.5561655,54.5938487 23.2757672,54.9747767 26.9337704,55.5500244 C26.8595363,54.0078055 26.7908303,52.7516683 26.7908303,51.9975233 C26.7908303,47.0863274 29.278462,38.6650415 30.2213929,34.5835594 C32.8472264,23.1965867 23.0112095,0.980153336 13.2975999,0.64549185" id="Fill-98"></path>
            </g>
            <g id="Left-Step" transform="translate(379.924184, 235.996405) rotate(100.000000) translate(-379.924184, -235.996405) translate(364.424184, 195.996405)">
                <path d="M16.0116594,56.4704103 C12.130202,56.4704103 8.34892151,56.8636836 4.64794152,57.4760443 C4.38954872,63.6445521 4.36092674,72.6387444 7.39724094,76.1302066 C11.6730455,81.0468975 21.1151161,81.0468975 24.9107076,75.4481715 C28.676087,69.8850569 26.18041,61.8957244 25.1221921,57.1400588 C22.1327862,56.7506562 19.1091929,56.4704103 16.0116594,56.4704103" id="Fill-95"></path>
                <path d="M18.0893146,0.496506544 C8.37490429,0.831752649 -1.46112369,23.0312102 1.16787167,34.4149348 C2.11554197,38.4941478 4.60238678,46.9122931 4.60238678,51.8207584 C4.60238678,52.4164946 4.55184436,53.3482476 4.49893277,54.4703587 C8.14193534,53.9015963 11.8504851,53.5224214 15.6561711,53.5224214 C18.5647292,53.5224214 21.4187962,53.7513136 24.2389051,54.0873304 C23.9593424,51.4300233 23.8772109,47.3161298 24.8390963,43.1143786 C26.138984,37.4275257 28.8643259,31.5117806 29.9833666,28.4984191 C32.2664623,22.3661128 27.8068838,0.16126044 18.0893146,0.496506544" id="Fill-96"></path>
            </g>
            <g id="Left-Step" transform="translate(575.558518, 260.615085) rotate(91.000000) translate(-575.558518, -260.615085) translate(560.058518, 220.615085)">
                <path d="M16.0116594,56.4704103 C12.130202,56.4704103 8.34892151,56.8636836 4.64794152,57.4760443 C4.38954872,63.6445521 4.36092674,72.6387444 7.39724094,76.1302066 C11.6730455,81.0468975 21.1151161,81.0468975 24.9107076,75.4481715 C28.676087,69.8850569 26.18041,61.8957244 25.1221921,57.1400588 C22.1327862,56.7506562 19.1091929,56.4704103 16.0116594,56.4704103" id="Fill-95"></path>
                <path d="M18.0893146,0.496506544 C8.37490429,0.831752649 -1.46112369,23.0312102 1.16787167,34.4149348 C2.11554197,38.4941478 4.60238678,46.9122931 4.60238678,51.8207584 C4.60238678,52.4164946 4.55184436,53.3482476 4.49893277,54.4703587 C8.14193534,53.9015963 11.8504851,53.5224214 15.6561711,53.5224214 C18.5647292,53.5224214 21.4187962,53.7513136 24.2389051,54.0873304 C23.9593424,51.4300233 23.8772109,47.3161298 24.8390963,43.1143786 C26.138984,37.4275257 28.8643259,31.5117806 29.9833666,28.4984191 C32.2664623,22.3661128 27.8068838,0.16126044 18.0893146,0.496506544" id="Fill-96"></path>
            </g>
            <g id="Right-Step" transform="translate(660.080032, 312.799501) rotate(88.000000) translate(-660.080032, -312.799501) translate(645.080032, 272.299501)">
                <path d="M14.3464648,57.9565803 C11.3095603,57.9565803 8.34202284,58.2425821 5.41793507,58.6522602 C4.33245515,63.4679109 2.43972576,70.8150633 5.81584274,76.0079271 C9.45342012,81.6011932 18.5054384,81.6011932 22.6064791,76.6889204 C25.375825,73.3720733 25.4833058,65.0664286 25.2752047,58.9599053 C21.7161417,58.3507989 18.077802,57.9565803 14.3464648,57.9565803" id="Fill-97"></path>
                <path d="M12.4002206,0.0915418119 C2.98480606,-0.248007723 -1.33464066,22.3441911 0.880931018,28.5878249 C1.96729558,31.6492599 4.60517236,37.6733235 5.86061198,43.4589967 C6.90642913,48.2464099 6.68915622,52.945995 6.3456508,55.547117 C9.10746495,55.1942364 11.9044712,54.9542776 14.7596209,54.9542776 C18.463206,54.9542776 22.0665702,55.341662 25.6102608,55.9266596 C25.5383465,54.3583015 25.4717875,53.0808738 25.4717875,52.3139467 C25.4717875,47.3195102 27.8816808,38.7554906 28.7951451,34.6048308 C31.3389212,23.0248586 21.8102799,0.431875526 12.4002206,0.0915418119" id="Fill-98"></path>
            </g>
            <g id="Left-Step" transform="translate(750.810609, 244.366887) rotate(63.000000) translate(-750.810609, -244.366887) translate(735.310609, 203.866887)">
                <path d="M14.2859606,57.2906008 C10.4045032,57.2906008 6.62322269,57.6838741 2.9222427,58.2962348 C2.6638499,64.4647426 2.63522793,73.4589349 5.67154212,76.9503971 C9.94734671,81.867088 19.3894172,81.867088 23.1850087,76.268362 C26.9503882,70.7052474 24.4547112,62.7159149 23.3964933,57.9602493 C20.4070874,57.5708467 17.383494,57.2906008 14.2859606,57.2906008" id="Fill-95"></path>
                <path d="M17.5861927,0.277240789 C7.87178244,0.618266999 -1.96424554,23.2004738 0.664749813,34.7804696 C1.61242011,38.9300138 4.09926492,47.4932995 4.09926492,52.4863936 C4.09926492,53.0924011 4.04872251,54.0402188 3.99581091,55.1816766 C7.63881349,54.603108 11.3473633,54.2173956 15.1530492,54.2173956 C18.0616073,54.2173956 20.9156744,54.4502342 23.7357832,54.7920444 C23.4562205,52.0889217 23.3740891,47.9040989 24.3359744,43.6299037 C25.6358622,37.8450016 28.361204,31.827261 29.4802447,28.7619449 C31.7633404,22.5239092 27.3037619,-0.0637854211 17.5861927,0.277240789" id="Fill-96"></path>
            </g>
            <g id="Right-Step" transform="translate(1728.119322, 280.997906) rotate(98.000000) translate(-1728.119322, -280.997906) translate(1712.619322, 240.997906)">
                <path d="M15.478996,56.8186297 C12.3100522,56.8186297 9.21349133,57.1046314 6.16226931,57.5143095 C5.02959461,62.3299602 3.05457264,69.6771126 6.57747731,74.8699764 C10.3732102,80.4632425 19.8187946,80.4632425 24.0981414,75.5509697 C26.9878936,72.2341226 27.1000475,63.9284779 26.8828985,57.8219546 C23.1690936,57.2128482 19.3725653,56.8186297 15.478996,56.8186297" id="Fill-97"></path>
                <path d="M13.2975999,0.64549185 C3.57846231,0.311601474 -0.880321403,22.5272637 1.40672033,28.6668369 C2.52812891,31.677248 5.25109849,37.6009105 6.54703616,43.2901558 C7.62658935,47.9977788 7.40230764,52.6190375 7.0477214,55.1768074 C9.89862632,54.8298082 12.7858586,54.5938487 15.7331099,54.5938487 C19.5561655,54.5938487 23.2757672,54.9747767 26.9337704,55.5500244 C26.8595363,54.0078055 26.7908303,52.7516683 26.7908303,51.9975233 C26.7908303,47.0863274 29.278462,38.6650415 30.2213929,34.5835594 C32.8472264,23.1965867 23.0112095,0.980153336 13.2975999,0.64549185" id="Fill-98"></path>
            </g>
            <g id="Left-Step" transform="translate(1631.924184, 214.612691) rotate(100.000000) translate(-1631.924184, -214.612691) translate(1616.424184, 174.612691)">
                <path d="M16.0116594,56.4704103 C12.130202,56.4704103 8.34892151,56.8636836 4.64794152,57.4760443 C4.38954872,63.6445521 4.36092674,72.6387444 7.39724094,76.1302066 C11.6730455,81.0468975 21.1151161,81.0468975 24.9107076,75.4481715 C28.676087,69.8850569 26.18041,61.8957244 25.1221921,57.1400588 C22.1327862,56.7506562 19.1091929,56.4704103 16.0116594,56.4704103" id="Fill-95"></path>
                <path d="M18.0893146,0.496506544 C8.37490429,0.831752649 -1.46112369,23.0312102 1.16787167,34.4149348 C2.11554197,38.4941478 4.60238678,46.9122931 4.60238678,51.8207584 C4.60238678,52.4164946 4.55184436,53.3482476 4.49893277,54.4703587 C8.14193534,53.9015963 11.8504851,53.5224214 15.6561711,53.5224214 C18.5647292,53.5224214 21.4187962,53.7513136 24.2389051,54.0873304 C23.9593424,51.4300233 23.8772109,47.3161298 24.8390963,43.1143786 C26.138984,37.4275257 28.8643259,31.5117806 29.9833666,28.4984191 C32.2664623,22.3661128 27.8068838,0.16126044 18.0893146,0.496506544" id="Fill-96"></path>
            </g>
            <g id="Left-Step" transform="translate(1827.558518, 239.231371) rotate(91.000000) translate(-1827.558518, -239.231371) translate(1812.058518, 199.231371)">
                <path d="M16.0116594,56.4704103 C12.130202,56.4704103 8.34892151,56.8636836 4.64794152,57.4760443 C4.38954872,63.6445521 4.36092674,72.6387444 7.39724094,76.1302066 C11.6730455,81.0468975 21.1151161,81.0468975 24.9107076,75.4481715 C28.676087,69.8850569 26.18041,61.8957244 25.1221921,57.1400588 C22.1327862,56.7506562 19.1091929,56.4704103 16.0116594,56.4704103" id="Fill-95"></path>
                <path d="M18.0893146,0.496506544 C8.37490429,0.831752649 -1.46112369,23.0312102 1.16787167,34.4149348 C2.11554197,38.4941478 4.60238678,46.9122931 4.60238678,51.8207584 C4.60238678,52.4164946 4.55184436,53.3482476 4.49893277,54.4703587 C8.14193534,53.9015963 11.8504851,53.5224214 15.6561711,53.5224214 C18.5647292,53.5224214 21.4187962,53.7513136 24.2389051,54.0873304 C23.9593424,51.4300233 23.8772109,47.3161298 24.8390963,43.1143786 C26.138984,37.4275257 28.8643259,31.5117806 29.9833666,28.4984191 C32.2664623,22.3661128 27.8068838,0.16126044 18.0893146,0.496506544" id="Fill-96"></path>
            </g>
            <g id="Right-Step" transform="translate(1912.080032, 291.415788) rotate(88.000000) translate(-1912.080032, -291.415788) translate(1897.080032, 250.915788)">
                <path d="M14.3464648,57.9565803 C11.3095603,57.9565803 8.34202284,58.2425821 5.41793507,58.6522602 C4.33245515,63.4679109 2.43972576,70.8150633 5.81584274,76.0079271 C9.45342012,81.6011932 18.5054384,81.6011932 22.6064791,76.6889204 C25.375825,73.3720733 25.4833058,65.0664286 25.2752047,58.9599053 C21.7161417,58.3507989 18.077802,57.9565803 14.3464648,57.9565803" id="Fill-97"></path>
                <path d="M12.4002206,0.0915418119 C2.98480606,-0.248007723 -1.33464066,22.3441911 0.880931018,28.5878249 C1.96729558,31.6492599 4.60517236,37.6733235 5.86061198,43.4589967 C6.90642913,48.2464099 6.68915622,52.945995 6.3456508,55.547117 C9.10746495,55.1942364 11.9044712,54.9542776 14.7596209,54.9542776 C18.463206,54.9542776 22.0665702,55.341662 25.6102608,55.9266596 C25.5383465,54.3583015 25.4717875,53.0808738 25.4717875,52.3139467 C25.4717875,47.3195102 27.8816808,38.7554906 28.7951451,34.6048308 C31.3389212,23.0248586 21.8102799,0.431875526 12.4002206,0.0915418119" id="Fill-98"></path>
            </g>
            <g id="Right-Step" transform="translate(2106.804242, 227.868833) rotate(56.000000) translate(-2106.804242, -227.868833) translate(2091.804242, 187.368833)">
                <path d="M14.3464648,57.9565803 C11.3095603,57.9565803 8.34202284,58.2425821 5.41793507,58.6522602 C4.33245515,63.4679109 2.43972576,70.8150633 5.81584274,76.0079271 C9.45342012,81.6011932 18.5054384,81.6011932 22.6064791,76.6889204 C25.375825,73.3720733 25.4833058,65.0664286 25.2752047,58.9599053 C21.7161417,58.3507989 18.077802,57.9565803 14.3464648,57.9565803" id="Fill-97"></path>
                <path d="M12.4002206,0.0915418119 C2.98480606,-0.248007723 -1.33464066,22.3441911 0.880931018,28.5878249 C1.96729558,31.6492599 4.60517236,37.6733235 5.86061198,43.4589967 C6.90642913,48.2464099 6.68915622,52.945995 6.3456508,55.547117 C9.10746495,55.1942364 11.9044712,54.9542776 14.7596209,54.9542776 C18.463206,54.9542776 22.0665702,55.341662 25.6102608,55.9266596 C25.5383465,54.3583015 25.4717875,53.0808738 25.4717875,52.3139467 C25.4717875,47.3195102 27.8816808,38.7554906 28.7951451,34.6048308 C31.3389212,23.0248586 21.8102799,0.431875526 12.4002206,0.0915418119" id="Fill-98"></path>
            </g>
            <g id="Left-Step" transform="translate(2002.810609, 222.983174) rotate(63.000000) translate(-2002.810609, -222.983174) translate(1987.310609, 182.483174)">
                <path d="M14.2859606,57.2906008 C10.4045032,57.2906008 6.62322269,57.6838741 2.9222427,58.2962348 C2.6638499,64.4647426 2.63522793,73.4589349 5.67154212,76.9503971 C9.94734671,81.867088 19.3894172,81.867088 23.1850087,76.268362 C26.9503882,70.7052474 24.4547112,62.7159149 23.3964933,57.9602493 C20.4070874,57.5708467 17.383494,57.2906008 14.2859606,57.2906008" id="Fill-95"></path>
                <path d="M17.5861927,0.277240789 C7.87178244,0.618266999 -1.96424554,23.2004738 0.664749813,34.7804696 C1.61242011,38.9300138 4.09926492,47.4932995 4.09926492,52.4863936 C4.09926492,53.0924011 4.04872251,54.0402188 3.99581091,55.1816766 C7.63881349,54.603108 11.3473633,54.2173956 15.1530492,54.2173956 C18.0616073,54.2173956 20.9156744,54.4502342 23.7357832,54.7920444 C23.4562205,52.0889217 23.3740891,47.9040989 24.3359744,43.6299037 C25.6358622,37.8450016 28.361204,31.827261 29.4802447,28.7619449 C31.7633404,22.5239092 27.3037619,-0.0637854211 17.5861927,0.277240789" id="Fill-96"></path>
            </g>
            <g id="Left-Step" transform="translate(907.828335, 136.692544) rotate(50.000000) translate(-907.828335, -136.692544) translate(892.328335, 96.192544)">
                <path d="M15.6395058,57.0939266 C11.7580484,57.0939266 7.97676786,57.4871999 4.27578787,58.0995606 C4.01739507,64.2680685 3.9887731,73.2622608 7.02508729,76.7537229 C11.3008919,81.6704139 20.7429624,81.6704139 24.5385539,76.0716878 C28.3039333,70.5085732 25.8082564,62.5192407 24.7500385,57.7635751 C21.7606325,57.3741726 18.7370392,57.0939266 15.6395058,57.0939266" id="Fill-95"></path>
                <path d="M18.170599,0.287651066 C8.4561887,0.628677275 -1.37983928,23.2108841 1.24915607,34.7908798 C2.19682637,38.9404241 4.68367118,47.5037098 4.68367118,52.4968039 C4.68367118,53.1028114 4.63312877,54.050629 4.58021717,55.1920869 C8.22321975,54.6135183 11.9317695,54.2278059 15.7374555,54.2278059 C18.6460136,54.2278059 21.5000806,54.4606445 24.3201895,54.8024546 C24.0406268,52.0993319 23.9584953,47.9145092 24.9203807,43.640314 C26.2202684,37.8554119 28.9456103,31.8376713 30.064651,28.7723552 C32.3477467,22.5343195 27.8881682,-0.0533751442 18.170599,0.287651066" id="Fill-96"></path>
            </g>
            <g id="Left-Step" transform="translate(1065.553767, 31.728943) rotate(79.000000) translate(-1065.553767, -31.728943) translate(1050.053767, -8.771057)">
                <path d="M15.492883,56.9118219 C11.6114255,56.9118219 7.83014503,57.3050953 4.12916504,57.9174559 C3.87077224,64.0859638 3.84215027,73.0801561 6.87846446,76.5716182 C11.154269,81.4883092 20.5963396,81.4883092 24.3919311,75.8895832 C28.1573105,70.3264685 25.6616336,62.3371361 24.6034157,57.5814704 C21.6140097,57.1920679 18.5904164,56.9118219 15.492883,56.9118219" id="Fill-95"></path>
                <path d="M18.1970693,0.27690106 C8.48265904,0.61792727 -1.35336894,23.2001341 1.27562641,34.7801298 C2.22329671,38.929674 4.71014152,47.4929598 4.71014152,52.4860539 C4.71014152,53.0920614 4.6595991,54.039879 4.60668751,55.1813369 C8.24969009,54.6027683 11.9582399,54.2170559 15.7639258,54.2170559 C18.6724839,54.2170559 21.526551,54.4498944 24.3466598,54.7917046 C24.0670971,52.0885819 23.9849657,47.9037592 24.946851,43.629564 C26.2467388,37.8446619 28.9720806,31.8269213 30.0911213,28.7616052 C32.374217,22.5235695 27.9146385,-0.0641251494 18.1970693,0.27690106" id="Fill-96"></path>
            </g>
            <g id="Left-Step" transform="translate(1298.060466, 32.500000) rotate(105.000000) translate(-1298.060466, -32.500000) translate(1281.560466, -13.000000)">
                <path d="M16.0101365,64.1872643 C11.8469694,64.1872643 7.79125001,64.6267474 3.82165918,65.3110607 C3.54451266,72.2043709 3.51381336,82.2553847 6.77049808,86.1570951 C11.3566333,91.6514994 21.4839933,91.6514994 25.5550624,85.3949206 C29.5937266,79.1781376 26.9169177,70.2500552 25.7818961,64.9355968 C22.5755242,64.5004393 19.3324836,64.1872643 16.0101365,64.1872643" id="Fill-95"></path>
                <path d="M19.0054326,0.95553418 C8.58596691,1.33439521 -1.96394327,26.4219633 0.855860102,39.2866905 C1.8723107,43.8966019 4.53964648,53.4099332 4.53964648,58.9569813 C4.53964648,59.6302217 4.48543579,60.6831941 4.42868396,61.9512899 C8.33608947,61.3085325 12.3137995,60.8800276 16.3956957,60.8800276 C19.515352,60.8800276 22.5765624,61.1386983 25.60135,61.5184302 C25.301497,58.5154122 25.2134046,53.8663083 26.245102,49.1179166 C27.6393334,42.6912142 30.5624759,36.0058411 31.7627347,32.6004465 C34.2115336,25.6703378 29.4282865,0.576673145 19.0054326,0.95553418" id="Fill-96"></path>
            </g>
            <g id="Left-Step" transform="translate(1468.754544, 137.930623) rotate(129.000000) translate(-1468.754544, -137.930623) translate(1453.754544, 97.430623)">
                <path d="M15.4514257,57.6185378 C11.7316957,57.6185378 8.1079685,58.0118111 4.56119601,58.6241718 C4.31356958,64.7926796 4.28614019,73.7868719 7.19594129,77.2783341 C11.2935874,82.195025 20.3422383,82.195025 23.9796801,76.596299 C27.5881688,71.0331844 25.1964783,63.0438519 24.1823529,58.2881863 C21.3175055,57.8987837 18.4198952,57.6185378 15.4514257,57.6185378" id="Fill-95"></path>
                <path d="M17.7677697,0.842861457 C8.35693474,1.18388767 -1.17171736,23.7660945 1.37512189,35.3460902 C2.29317749,39.4956344 4.7023084,48.0589202 4.7023084,53.0520143 C4.7023084,53.6580218 4.65334544,54.6058394 4.60208733,55.7472973 C8.13124607,55.1687287 11.7239037,54.7830163 15.410662,54.7830163 C18.2283276,54.7830163 20.9932051,55.0158548 23.7251855,55.357665 C23.4543591,52.6545423 23.3747943,48.4697196 24.3066207,44.1955244 C25.565887,38.4106223 28.2060619,32.3928817 29.2901326,29.3275656 C31.5018815,23.0895299 27.1816649,0.501835247 17.7677697,0.842861457" id="Fill-96"></path>
            </g>
            <g id="Right-Step" transform="translate(866.297515, 243.934414) rotate(52.000000) translate(-866.297515, -243.934414) translate(850.797515, 203.434414)">
                <path d="M16.4244058,57.850052 C13.255462,57.850052 10.1589012,58.1360538 7.10767916,58.5457319 C5.97500446,63.3613826 3.99998249,70.708535 7.52288716,75.9013988 C11.3186201,81.4946649 20.7642044,81.4946649 25.0435512,76.5823921 C27.9333035,73.265545 28.0454574,64.9599003 27.8283084,58.853377 C24.1145034,58.2442706 20.3179751,57.850052 16.4244058,57.850052" id="Fill-97"></path>
                <path d="M13.2189536,0.124892532 C3.49981592,-0.214657004 -0.958967787,22.3775419 1.32807395,28.6211756 C2.44948253,31.6826107 5.17245211,37.7066742 6.46838977,43.4923474 C7.54794297,48.2797606 7.32366125,52.9793457 6.96907502,55.5804677 C9.81997994,55.2275871 12.7072122,54.9876283 15.6544635,54.9876283 C19.4775191,54.9876283 23.1971208,55.3750128 26.855124,55.9600103 C26.7808899,54.3916522 26.7121839,53.1142245 26.7121839,52.3472974 C26.7121839,47.3528609 29.1998156,38.7888413 30.1427465,34.6381816 C32.76858,23.0582093 22.9325631,0.465226246 13.2189536,0.124892532" id="Fill-98"></path>
            </g>
            <g id="Right-Step" transform="translate(1023.538693, 119.931093) rotate(59.000000) translate(-1023.538693, -119.931093) translate(1008.038693, 79.431093)">
                <path d="M16.4244058,57.850052 C13.255462,57.850052 10.1589012,58.1360538 7.10767916,58.5457319 C5.97500446,63.3613826 3.99998249,70.708535 7.52288716,75.9013988 C11.3186201,81.4946649 20.7642044,81.4946649 25.0435512,76.5823921 C27.9333035,73.265545 28.0454574,64.9599003 27.8283084,58.853377 C24.1145034,58.2442706 20.3179751,57.850052 16.4244058,57.850052" id="Fill-97"></path>
                <path d="M13.2189536,0.124892532 C3.49981592,-0.214657004 -0.958967787,22.3775419 1.32807395,28.6211756 C2.44948253,31.6826107 5.17245211,37.7066742 6.46838977,43.4923474 C7.54794297,48.2797606 7.32366125,52.9793457 6.96907502,55.5804677 C9.81997994,55.2275871 12.7072122,54.9876283 15.6544635,54.9876283 C19.4775191,54.9876283 23.1971208,55.3750128 26.855124,55.9600103 C26.7808899,54.3916522 26.7121839,53.1142245 26.7121839,52.3472974 C26.7121839,47.3528609 29.1998156,38.7888413 30.1427465,34.6381816 C32.76858,23.0582093 22.9325631,0.465226246 13.2189536,0.124892532" id="Fill-98"></path>
            </g>
            <g id="Right-Step" transform="translate(1185.039029, 75.713205) rotate(95.000000) translate(-1185.039029, -75.713205) translate(1169.539029, 35.713205)">
                <path d="M15.2650555,57.4507005 C12.0961116,57.4507005 8.99955081,57.7367022 5.94832879,58.1463803 C4.81565409,62.962031 2.84063212,70.3091834 6.36353679,75.5020472 C10.1592697,81.0953133 19.604854,81.0953133 23.8842009,76.1830405 C26.7739531,72.8661934 26.886107,64.5605487 26.668958,58.4540254 C22.9551531,57.8449191 19.1586247,57.4507005 15.2650555,57.4507005" id="Fill-97"></path>
                <path d="M12.7902162,0.0914786975 C3.0710786,-0.242411679 -1.38770511,21.9732505 0.899336622,28.1128237 C2.02074521,31.1232349 4.74371478,37.0468974 6.03965245,42.7361426 C7.11920564,47.4437656 6.89492393,52.0650243 6.54033769,54.6227943 C9.39124261,54.275795 12.2784749,54.0398355 15.2257262,54.0398355 C19.0487818,54.0398355 22.7683835,54.4207636 26.4263867,54.9960112 C26.3521526,53.4537924 26.2834466,52.1976551 26.2834466,51.4435101 C26.2834466,46.5323143 28.7710783,38.1110284 29.7140092,34.0295462 C32.3398427,22.6425735 22.5038258,0.426140183 12.7902162,0.0914786975" id="Fill-98"></path>
            </g>
            <g id="Right-Step" transform="translate(1371.055804, 133.718196) rotate(133.000000) translate(-1371.055804, -133.718196) translate(1356.055804, 92.718196)">
                <path d="M15.6720989,58.8150383 C12.6351944,58.8150383 9.66765695,59.1010401 6.74356918,59.5107182 C5.65808926,64.3263689 3.76535987,71.6735213 7.14147685,76.8663851 C10.7790542,82.4596512 19.8310725,82.4596512 23.9321133,77.5473784 C26.7014592,74.2305313 26.80894,65.9248866 26.6008388,59.8183633 C23.0417758,59.2092569 19.4034361,58.8150383 15.6720989,58.8150383" id="Fill-97"></path>
                <path d="M13.0589935,0.565238804 C3.64357889,0.225689269 -0.675867833,22.8178881 1.53970385,29.0615219 C2.62606841,32.1229569 5.26394519,38.1470205 6.5193848,43.9326937 C7.56520196,48.7201068 7.34792905,53.419692 7.00442363,56.0208139 C9.76623778,55.6679334 12.563244,55.4279746 15.4183937,55.4279746 C19.1219788,55.4279746 22.725343,55.815359 26.2690336,56.4003566 C26.1971193,54.8319985 26.1305604,53.5545708 26.1305604,52.7876437 C26.1305604,47.7932072 28.5404536,39.2291876 29.4539179,35.0785278 C31.9976941,23.4985556 22.4690527,0.905572518 13.0589935,0.565238804" id="Fill-98"></path>
            </g>
            <g id="Right-Step" transform="translate(1529.709757, 238.760028) rotate(121.000000) translate(-1529.709757, -238.760028) translate(1514.709757, 197.760028)">
                <path d="M15.6720989,58.8150383 C12.6351944,58.8150383 9.66765695,59.1010401 6.74356918,59.5107182 C5.65808926,64.3263689 3.76535987,71.6735213 7.14147685,76.8663851 C10.7790542,82.4596512 19.8310725,82.4596512 23.9321133,77.5473784 C26.7014592,74.2305313 26.80894,65.9248866 26.6008388,59.8183633 C23.0417758,59.2092569 19.4034361,58.8150383 15.6720989,58.8150383" id="Fill-97"></path>
                <path d="M13.0589935,0.565238804 C3.64357889,0.225689269 -0.675867833,22.8178881 1.53970385,29.0615219 C2.62606841,32.1229569 5.26394519,38.1470205 6.5193848,43.9326937 C7.56520196,48.7201068 7.34792905,53.419692 7.00442363,56.0208139 C9.76623778,55.6679334 12.563244,55.4279746 15.4183937,55.4279746 C19.1219788,55.4279746 22.725343,55.815359 26.2690336,56.4003566 C26.1971193,54.8319985 26.1305604,53.5545708 26.1305604,52.7876437 C26.1305604,47.7932072 28.5404536,39.2291876 29.4539179,35.0785278 C31.9976941,23.4985556 22.4690527,0.905572518 13.0589935,0.565238804" id="Fill-98"></path>
            </g>
        </g>
    </g>
</svg>