<?xml version="1.0" encoding="utf-8"?>
<!-- Generator: Adobe Illustrator 16.0.0, SVG Export Plug-In . SVG Version: 6.00 Build 0)  -->
<!DOCTYPE svg PUBLIC "-//W3C//DTD SVG 1.1//EN" "http://www.w3.org/Graphics/SVG/1.1/DTD/svg11.dtd">
<svg version="1.1" xmlns="http://www.w3.org/2000/svg" xmlns:xlink="http://www.w3.org/1999/xlink" x="0px" y="0px" width="1024px"
	 height="1024px" viewBox="0 0 1024 1024" enable-background="new 0 0 1024 1024" xml:space="preserve">
<g id="Background">
	<rect y="-3" fill="#EFEFF4" width="1024" height="1024"/>
	<radialGradient id="SVGID_1_" cx="506.9727" cy="504.0005" r="446.7346" gradientUnits="userSpaceOnUse">
		<stop  offset="0" style="stop-color:#FFFFFF"/>
		<stop  offset="0.1316" style="stop-color:#FFFDFB"/>
		<stop  offset="0.2709" style="stop-color:#FEF6EE"/>
		<stop  offset="0.4138" style="stop-color:#FCEAD9"/>
		<stop  offset="0.5592" style="stop-color:#F9D9BB"/>
		<stop  offset="0.7064" style="stop-color:#F6C495"/>
		<stop  offset="0.8533" style="stop-color:#F2AB67"/>
		<stop  offset="1" style="stop-color:#EE8D31"/>
	</radialGradient>
	<path fill="url(#SVGID_1_)" d="M953.707,504c0,246.724-200.013,446.735-446.734,446.735C260.248,950.735,60.238,750.725,60.238,504
		c0-246.725,200.009-446.735,446.734-446.735C753.694,57.266,953.707,257.275,953.707,504z"/>
</g>
<g id="Layer_1" display="none">
	
		<text transform="matrix(0.9511 -0.309 0.309 0.9511 158.9043 750.0049)" display="inline" fill="#231F20" font-family="'GiddyupStd'" font-size="394.4136">rhyme! </text>
</g>
<g id="Layer_3">
	<path fill="#231F20" d="M278.765,548.449c0.547,3.645-1.391,6.502-4.558,7.531c-3.456,1.123-6.696-1.01-7.818-4.465
		c-0.655-2.016-7.937-51.867-11.024-61.372c-4.117-12.673-8.3-16.727-13.262-19.255c-1.814-0.684-2.664-2.319-3.225-4.046
		c-1.122-3.457,0.822-7.272,3.99-8.301c5.472-1.779,16.718,5.394,20.82,19.981c0.161-21.067,12.905-34.764,27.306-39.442
		c3.745-1.216,7.755,0.347,8.972,4.091c1.122,3.457-0.815,6.315-4.176,7.726c-29.393,11.46-23.737,48.47-18.383,87.487
		L278.765,548.449z"/>
	<path fill="#231F20" d="M339.83,527.656c-4.247-8.172-6.6-13.457-9.688-22.961c-10.293-31.681-15.646-70.7-16.697-83.732
		c-1.922,0.943-5.09,1.972-7.682,2.815c-5.185,1.684-11.139,3.938-13.291-2.688c-1.123-3.456,0.821-7.271,4.177-7.726l5.472-1.777
		c3.744-1.216,7.683-2.815,10.664-4.42c-0.335-31.413,6.948-69.76,29.125-76.965c12.384-4.024,22.017,1.125,25.854,12.933
		c7.579,23.329-15.068,54.568-41.529,71.125c0.776,11.211,2.812,33.157,8.338,61.931c-0.717-31.61,11.144-54.888,26.696-59.941
		c22.753-7.392,32.866,22.756,36.89,35.14c7.766,23.908,9.391,49.489,9.368,52.362c0.072,3.161-1.577,5.926-4.457,6.862
		c-3.744,1.215-7.653-1.016-8.682-4.185c-0.188-0.577-0.087-1.246-0.274-1.822c-0.596-9.677-2.927-30.57-8.915-49.004
		c-7.111-21.891-13.289-28.162-20.489-25.823c-18.721,6.082-27.575,62.135-13.156,92.794c1.699,3.27-0.246,7.084-3.99,8.299
		C344.395,531.902,341.341,530.348,339.83,527.656z M325.868,399.414c19.938-15.075,33.808-38.049,29.223-52.162
		c-1.404-4.319-4.449-6.833-9.634-5.149C335.089,345.471,326,369.439,325.868,399.414z"/>
	<path fill="#231F20" d="M430.12,403.752c1.719,13.132,4.331,34.892,10.319,53.326c2.713,8.354,9.854,26.411,19.647,23.229
		c17.568-5.708,24.571-57.657,12.961-92.413c-1.122-3.456,1.204-7.076,4.66-8.2c3.456-1.123,6.695,1.007,7.819,4.463
		c4.21,12.961,11.364,41.841,14.897,55.659c3.066,12.376,8.723,36.651,9.281,63.853c11.283,2.385,21.57,9.548,25.126,20.494
		c1.123,3.455-0.82,7.27-4.277,8.393c-3.455,1.123-6.984-0.916-8.107-4.369c-2.619-8.064-10.812-15.678-13.779-15.988
		c-2.1,36.66-12.863,57.107-38.496,65.436c-14.113,4.584-31.552,2.414-34.739-15.779c-4-22.834,17.333-48,41.405-55.467
		c6.651-2.063,13.527-3.44,19.273-3.396c-0.07-15.898-3.328-40.629-7.309-58.763c-0.649,22.503-10.487,44.167-24.6,48.751
		c-17.856,5.801-30.174-11.529-36.725-31.691c-6.457-19.875-9.248-43.167-10.693-54.478c-0.079-2.204-0.713-7.091,4.76-8.87
		c3.456-1.123,7.271,0.82,8.489,4.565L430.12,403.752z M495.267,510.522c-4.406,0.157-10.641,1.547-15.537,3.138
		c-23.904,7.768-42.023,27.587-35.379,48.08c2.994,9.219,12.173,11.012,19.949,8.484
		C484.173,563.768,493.393,542.969,495.267,510.522z"/>
	<path fill="#231F20" d="M531.928,465.247c-0.938-2.881-1.447-11.311-2.244-19.652c-1.316-15.812-3.361-36.799-8.32-52.065
		c-1.029-3.168-4.305-13.248-10.027-16.165c-1.331-1.16-2.376-2.413-2.938-4.14c-1.122-3.457,0.822-7.271,4.566-8.488
		c6.048-1.965,16.984,8.173,20.667,27.354c1.91-24.501,11.092-35.445,22.611-39.188c10.082-3.275,24.518-0.004,34.092,25.542
		c0.281-24.609,8.061-39.873,23.611-44.925c13.055-3.923,27.834,4.329,37.941,35.435c6.738,20.737,9.133,45.75,9.908,56.96
		c-0.309,2.966-1.959,5.731-4.838,6.667c-3.744,1.217-7.654-1.015-8.777-4.472c-0.188-0.575-0.375-1.151-0.273-1.821
		c-0.299-10.728-2.422-33.92-8.504-52.641c-5.148-15.841-12.893-29.881-22.686-26.7c-16.127,5.24-21,41.211-15.523,76.686
		c3.195,20.615,3.654,23.011-1.529,24.695c-3.744,1.217-7.365-1.109-8.488-4.565c-0.375-1.151-1.742-10.26-2.555-16.683
		c-2.1-13.327-4.303-25.985-7.951-37.218c-2.061-6.335-9.365-27.843-21.75-23.819c-14.977,4.865-21.113,43.796-14.432,96.71
		c0.455,3.355-1.195,6.12-4.363,7.149C536.383,471.123,533.143,468.99,531.928,465.247z"/>
	<path fill="#231F20" d="M725.783,322.978c-1.873-5.761-7.215-8.482-14.703-6.049c-14.4,4.678-28.861,29.754-18.848,60.572
		c3.182,9.792,12.057,26.331,32.795,19.594c7.488-2.433,14.141-8.416,17.072-16.055c0.684-1.814,1.842-3.146,3.859-3.801
		c3.455-1.124,6.697,1.009,7.912,4.753c1.777,5.474-8.303,21.484-25.871,27.192c-21.889,7.112-40.775-2.992-48.727-27.472
		c-11.791-36.29,5.318-69.869,28.072-77.261c17.279-5.614,27.652,2.796,31.396,14.317c7.395,22.753-12.863,41.752-29.855,47.272
		c-3.457,1.123-7.084-0.246-8.301-3.989c-1.027-3.168,0.627-6.891,4.277-8.396C718.307,348.97,729.994,335.938,725.783,322.978z"/>
	<path fill="#231F20" d="M373.246,736.812c-0.289,0.093-1.821,0.273-2.11,0.366c-15.148,2.375-25.897-7.187-33.102-29.365
		c-4.492-13.823-8.003-30.514-9.643-54.179c-8.352,2.713-11.053,5.181-15.084,6.491c-2.017,0.654-4.594-0.417-5.624-3.587
		c-2.62-8.063,9.384-12.281,19.658-15.938c-0.784-10.254-1.632-24.624-2.206-37.176c0.021-2.871,1.765-5.349,4.264-6.479
		c3.744-1.216,7.372,0.152,8.495,3.609c0.374,1.15,0.554,2.686,0.453,3.354c-0.073,9.576,1.142,26.057,1.762,32.86
		c4.031-1.311,9.885-2.894,17.755-5.131c3.355-0.453,7.271,0.821,8.302,3.989c1.122,3.455-0.434,6.508-3.602,7.537
		c-5.472,1.778-15.452,4.384-21.017,5.874c0.804,20.117,4.107,39.104,8.879,53.792c7.392,22.752,16.213,21.479,19.279,21.119
		c3.169-1.028,6.697,1.009,7.726,4.177C378.552,731.583,376.608,735.399,373.246,736.812z"/>
	<path fill="#231F20" d="M403.667,576.639l-8.899,11.807l21.22,5.523l-22.438,3.469l-2.918,18.461l-5.139-16.799l-14.775,3.527
		l11.493-12.65l-5.744-12.778l11.728,6.695L403.667,576.639z M404.643,624.719c0.094,0.287,0.28,0.865,0.18,1.534
		c1.552,22.421,8.245,61.64,15.406,89.562c0.835,3.55-0.916,6.984-4.372,8.107c-3.742,1.217-7.559-0.729-8.776-4.473
		c-1.215-3.744-13.178-55.261-15.671-92.342c-0.548-3.645,2.543-6.877,6.277-7.135C400.849,619.901,403.707,621.839,404.643,624.719
		z"/>
	<path fill="#231F20" d="M450.768,703.983c-0.935-2.881-1.444-11.312-2.243-19.648c-1.316-15.813-3.359-36.801-8.317-52.065
		c-1.03-3.169-4.305-13.248-10.028-16.165c-1.332-1.16-2.377-2.412-2.938-4.141c-1.123-3.456,0.822-7.271,4.566-8.487
		c6.047-1.966,16.983,8.173,20.667,27.354c1.911-24.501,11.092-35.444,22.613-39.187c10.079-3.276,24.516-0.005,34.089,25.541
		c0.283-24.608,8.061-39.869,23.614-44.922c13.053-3.923,27.836,4.33,37.939,35.432c6.738,20.737,9.133,45.75,9.908,56.961
		c-0.309,2.967-1.957,5.73-4.838,6.666c-3.744,1.217-7.654-1.016-8.777-4.473c-0.186-0.574-0.373-1.151-0.273-1.82
		c-0.301-10.729-2.422-33.919-8.504-52.642c-5.146-15.84-12.893-29.881-22.686-26.699c-16.127,5.239-20.998,41.211-15.523,76.687
		c3.195,20.614,3.656,23.012-1.529,24.694c-3.744,1.218-7.364-1.108-8.487-4.564c-0.375-1.151-1.742-10.261-2.556-16.683
		c-2.1-13.327-4.303-25.985-7.952-37.219c-2.059-6.335-9.363-27.843-21.748-23.819c-14.977,4.866-21.115,43.797-14.432,96.709
		c0.452,3.355-1.197,6.12-4.364,7.15C455.225,709.857,451.985,707.727,450.768,703.983z"/>
	<path fill="#231F20" d="M644.625,561.72c-1.871-5.762-7.213-8.482-14.701-6.049c-14.4,4.678-28.861,29.751-18.85,60.568
		c3.182,9.793,12.059,26.331,32.795,19.594c7.488-2.433,14.141-8.415,17.072-16.054c0.686-1.814,1.844-3.146,3.859-3.802
		c3.455-1.123,6.697,1.01,7.914,4.753c1.777,5.474-8.305,21.483-25.873,27.191c-21.889,7.111-40.775-2.991-48.729-27.472
		c-11.789-36.289,5.322-69.866,28.074-77.259c17.281-5.614,27.656,2.797,31.398,14.318c7.393,22.749-12.863,41.747-29.855,47.27
		c-3.457,1.123-7.086-0.247-8.303-3.991c-1.029-3.167,0.629-6.889,4.277-8.394C637.15,587.709,648.836,574.68,644.625,561.72z"/>
	<path fill="#231F20" d="M707.375,597.7c-0.469-1.439-0.555-2.685-0.547-3.643c1.686-7.55,0.016-14.647-2.23-21.562
		c-3.836-11.808-8.148-24.099-13.799-36.592c-5.838-13.068-10.523-26.512-14.174-37.744c-2.9-8.929-3.504-17.648-2.891-22.622
		c-7.338-4.942-13.219-12.264-16.4-22.057c-1.871-5.76-4.305-13.249,2.607-15.494c3.744-1.217,6.697,1.008,7.727,4.177
		c0.375,1.153,1.389,6.235,1.855,7.675c1.217,3.744,3.197,7.878,6.234,11.348c1.492-7.171,7.303-15.746,17.959-19.208
		c10.08-3.274,20.002,1.782,23.09,11.285c3.648,11.233-2.082,22.01-14.469,26.034c-5.184,1.685-10.164,2.03-15.234,1.128
		c-0.41,3.637,1.268,9.778,2.295,12.947c3.182,9.792,7.111,21.888,12.094,34.28c5.355,13.542,11.668,27.095,16.066,40.631
		c3.182,9.793,6.182,30.784-2.17,33.5C711.932,602.906,708.404,600.869,707.375,597.7z M686.055,467.395
		c2.957,1.269,8.229,0.829,12.26-0.481c5.186-1.684,7.223-5.211,6.193-8.378c-1.027-3.168-4.557-5.207-8.588-3.896
		C691.023,456.229,687.35,460.607,686.055,467.395z M714.068,624.183c-0.547-3.644,2.162-7.068,6.381-7.803
		c4.412-1.116,7.84,1.591,8.387,5.234l1.553,9.685c0.453,3.354-1.389,6.501-5.133,7.718c-4.896,1.59-8.994-1.218-9.633-5.148
		L714.068,624.183z"/>
</g>
</svg>
